Coordinates
version=1
nRows=60
nColumns=12
inDegrees=yes

Units are S.I. units (second, meters, Newtons, ...)
Angles are in degrees

endheader
time	SC_y	SC_z	SC_x	AC_y	AC_z	AC_x	GH_y	GH_z	GH_yy	EL_x	PS_y
       0.0              -19.27          25.46          40.25          57.52          3.353          -6.33          128.9          37.53         -161.0          85.16          147.6
   0.02324              -19.28          25.46          40.25          57.51          3.351         -6.329          128.9          37.53         -161.0          85.16          147.6
   0.04648              -19.28          25.46          40.25          57.51          3.349         -6.328          128.8          37.53         -161.0          85.16          147.6
   0.06973              -19.28          25.46          40.25          57.51          3.347         -6.327          128.8          37.53         -160.9          85.17          147.6
   0.09297              -19.29          25.47          40.25           57.5          3.345         -6.326          128.8          37.53         -160.9          85.17          147.5
    0.1162              -19.29          25.47          40.24           57.5          3.342         -6.325          128.8          37.53         -160.8          85.18          147.5
    0.1395               -19.3          25.47          40.24           57.5          3.339         -6.324          128.8          37.53         -160.8          85.18          147.5
    0.1627               -19.3          25.47          40.24          57.49          3.336         -6.322          128.7          37.52         -160.8          85.19          147.5
    0.1859              -19.31          25.47          40.23          57.49          3.333         -6.321          128.7          37.52         -160.7           85.2          147.4
    0.2092              -19.32          25.47          40.23          57.49           3.33         -6.319          128.7          37.52         -160.6           85.2          147.4
    0.2324              -19.32          25.47          40.23          57.48          3.326         -6.317          128.6          37.52         -160.6          85.21          147.4
    0.2557              -19.33          25.47          40.22          57.48          3.322         -6.315          128.6          37.52         -160.5          85.22          147.3
    0.2789              -19.34          25.47          40.22          57.47          3.318         -6.313          128.6          37.51         -160.4          85.23          147.3
    0.3021              -19.35          25.47          40.21          57.47          3.314         -6.311          128.5          37.51         -160.4          85.23          147.3
    0.3254              -19.36          25.47          40.21          57.46          3.309         -6.309          128.5          37.51         -160.3          85.24          147.2
    0.3486              -19.37          25.47           40.2          57.45          3.304         -6.306          128.4           37.5         -160.2          85.26          147.2
    0.3719              -19.38          25.48           40.2          57.44          3.298         -6.304          128.4           37.5         -160.1          85.27          147.1
    0.3951              -19.39          25.48          40.19          57.44          3.292           -6.3          128.3           37.5         -160.0          85.28          147.1
    0.4184              -19.41          25.48          40.18          57.43          3.285         -6.297          128.3          37.49         -159.9          85.29          147.0
    0.4416              -19.42          25.48          40.18          57.42          3.277         -6.294          128.2          37.49         -159.8          85.31          146.9
    0.4648              -19.44          25.48          40.17          57.41          3.269          -6.29          128.1          37.48         -159.6          85.32          146.9
    0.4881              -19.45          25.48          40.16           57.4           3.26         -6.285          128.0          37.48         -159.5          85.34          146.8
    0.5113              -19.47          25.49          40.15          57.38           3.25          -6.28          128.0          37.47         -159.3          85.36          146.7
    0.5346              -19.49          25.49          40.14          57.37          3.239         -6.275          127.9          37.47         -159.1          85.39          146.6
    0.5578              -19.52          25.49          40.12          57.35          3.227         -6.269          127.8          37.46         -158.9          85.41          146.5
    0.5811              -19.55          25.49          40.11          57.33          3.213         -6.262          127.6          37.45         -158.7          85.44          146.4
    0.6043              -19.58           25.5          40.09          57.31          3.198         -6.255          127.5          37.44         -158.4          85.47          146.2
    0.6275              -19.61           25.5          40.08          57.29          3.181         -6.246          127.3          37.43         -158.1           85.5          146.1
    0.6508              -19.65           25.5          40.06          57.27          3.161         -6.237          127.2          37.42         -157.8          85.54          145.9
     0.674              -19.69          25.51          40.03          57.24          3.139         -6.226          127.0          37.41         -157.4          85.59          145.7
    0.6973              -19.74          25.51          40.01          57.21          3.114         -6.214          126.7          37.39         -157.0          85.64          145.5
    0.7205               -19.8          25.52          39.98          57.17          3.085           -6.2          126.5          37.37         -156.5           85.7          145.2
    0.7438              -19.86          25.53          39.94          57.12          3.051         -6.183          126.2          37.35         -155.9          85.77          144.9
     0.767              -19.94          25.54           39.9          57.07          3.013         -6.165          125.8          37.33         -155.3          85.84          144.6
    0.7902              -20.03          25.55          39.85          57.01          2.967         -6.142          125.4           37.3         -154.5          85.94          144.2
    0.8135              -20.13          25.56           39.8          56.94          2.913         -6.116          125.0          37.27         -153.6          86.04          143.7
    0.8367              -20.26          25.57          39.73          56.86           2.85         -6.085          124.4          37.23         -152.5          86.17          143.2
      0.86              -20.41          25.59          39.65          56.76          2.773         -6.048          123.7          37.19         -151.2          86.33          142.5
    0.8832              -20.59          25.61          39.55          56.64          2.681         -6.003          122.9          37.13         -149.6          86.52          141.7
    0.9064              -20.81          25.63          39.44           56.5          2.568         -5.948          121.9          37.06         -147.7          86.74          140.7
    0.9297              -21.08          25.66          39.29          56.32          2.429          -5.88          120.6          36.98         -145.4          87.03          139.4
    0.9529              -21.42           25.7          39.11          56.09          2.255         -5.796          119.1          36.87         -142.4          87.38          137.9
    0.9762              -21.85          25.74          38.88          55.81          2.036         -5.689          117.2          36.74         -138.7          87.82          136.0
    0.9994              -22.39           25.8          38.59          55.44          1.758         -5.553          114.7          36.58         -134.0          88.38          133.5
     1.023              -23.09          25.88          38.22          54.98          1.402          -5.38          111.5          36.36         -128.0           89.1          130.4
     1.046              -23.99          25.98          37.75          54.39         0.9448         -5.157          107.4          36.09         -120.2          90.03          126.3
     1.069              -25.13           26.1          37.14          53.63          0.361         -4.873          102.3          35.73         -110.3          91.21          121.2
     1.092              -26.57          26.26          36.38          52.68         -0.373         -4.516          95.72          35.29         -97.88          92.69          114.7
     1.116              -28.32          26.45          35.44          51.51         -1.267          -4.08          87.76          34.76         -82.72           94.5          106.8
     1.139              -30.35          26.67          34.36          50.17         -2.304         -3.575          78.53          34.13         -65.15           96.6          97.61
     1.162              -32.55          26.91           33.2          48.71         -3.427         -3.028          68.55          33.46         -46.12          98.87          87.69
     1.185              -34.74          27.15          32.03          47.25          -4.55         -2.481          58.56          32.78         -27.09          101.1          77.77
     1.209              -36.77          27.37          30.95           45.9         -5.586         -1.976          49.33          32.16         -9.514          103.2          68.61
     1.232              -38.53          27.56          30.02          44.74         -6.481         -1.541          41.37          31.62          5.647          105.0          60.71
     1.255              -39.96          27.72          29.25          43.79         -7.215         -1.183          34.84          31.18          18.09          106.5          54.22
     1.278              -41.11          27.84          28.64          43.03         -7.799        -0.8987          29.65          30.83          27.98          107.7          49.06
     1.302               -42.0          27.94          28.17          42.43         -8.256        -0.6761          25.58          30.55          35.73          108.6          45.02
     1.325               -42.7          28.02           27.8          41.97         -8.612        -0.5026          22.41          30.34          41.76          109.4          41.87
     1.348              -43.24          28.08          27.51          41.61          -8.89        -0.3671          19.94          30.17          46.48          109.9          39.42
     1.371              -43.67          28.12          27.28          41.33         -9.109        -0.2605          17.99          30.04          50.19          110.4          37.48
